<?xml version="1.0" standalone="no"?>
<!DOCTYPE svg PUBLIC "-//W3C//DTD SVG 1.1//EN" "http://www.w3.org/Graphics/SVG/1.1/DTD/svg11.dtd" >
<svg xmlns="http://www.w3.org/2000/svg">
<metadata>Generated by IcoMoon</metadata>
<defs>
<font id="icomoon" horiz-adv-x="1024">
<font-face units-per-em="1024" ascent="960" descent="-64" />
<missing-glyph horiz-adv-x="1024" />
<glyph unicode="&#x20;" horiz-adv-x="512" d="" />
<glyph unicode="&#xe900;" glyph-name="fangda" d="M440.873 416.297l10.568-10.557c2.826-2.816 5.642-5.458 8.458-7.916 2.816-2.468 5.642-5.12 8.458-7.936l12.677-12.687c14.1-14.080 19.743-26.419 16.916-37.007-2.816-10.557-11.622-22.907-26.44-36.987-6.339-7.045-16.732-17.787-31.181-32.246-14.449-14.438-29.962-30.116-46.52-47.053-16.558-16.896-32.594-33.116-48.097-48.62-15.514-15.514-27.494-27.843-35.942-36.997-12.687-12.698-21.504-23.788-26.44-33.311-4.925-9.513-2.816-18.852 6.349-28.006 6.349-6.349 14.449-14.787 24.32-25.375 9.871-10.578 18.33-19.395 25.375-26.44 11.981-11.981 16.394-22.548 13.22-31.713-3.164-9.175-13.568-14.438-31.181-15.862-18.34-2.109-38.769-4.577-61.317-7.404-22.559-2.806-45.814-5.458-69.775-7.916-23.962-2.468-47.391-5.12-70.308-7.916-22.897-2.836-43.868-5.315-62.904-7.404-18.33-2.13-31.007 0.164-38.062 6.851-7.045 6.697-9.861 18.514-8.458 35.42 1.413 17.623 3.348 37.356 5.816 59.197 2.468 21.852 5.11 44.227 7.926 67.133 2.816 22.917 5.468 45.629 7.926 68.198 2.468 22.548 4.762 43.336 6.871 62.372 2.12 20.449 7.926 33.495 17.449 39.107 9.513 5.642 20.265 2.468 32.246-9.503 7.045-7.055 16.21-15.688 27.484-25.907 11.284-10.22 20.797-19.2 28.549-26.952 7.752-7.762 15.155-10.22 22.2-7.414 7.045 2.826 15.155 8.448 24.32 16.906 9.165 9.175 21.678 21.862 37.53 38.062 15.862 16.21 32.42 32.963 49.684 50.227 17.275 17.275 34.017 34.181 50.227 50.739 16.21 16.568 29.245 29.778 39.107 39.649 4.229 4.229 8.991 8.284 14.275 12.155s11.1 6.513 17.449 7.916c6.349 1.423 12.861 1.065 19.558-1.044 6.697-2.12 13.916-6.697 21.668-13.763v0zM975.821 949.146c18.319 2.12 31.007-0.184 38.062-6.871 7.045-6.697 9.871-18.504 8.458-35.41-1.423-17.623-3.359-37.356-5.816-59.208-2.468-21.842-5.11-44.216-7.916-67.133-2.826-22.897-5.458-45.804-7.926-68.7-2.468-22.917-4.762-43.878-6.881-62.915-2.109-20.439-7.926-33.3-17.449-38.584-9.513-5.294-20.265-1.946-32.225 10.025-7.055 7.055-16.742 16.22-29.082 27.494-12.329 11.264-22.385 20.787-30.106 28.539-7.793 7.762-14.459 11.1-20.101 10.045-5.652-1.055-12.687-5.816-21.156-14.275-9.861-9.861-22.733-22.907-38.584-39.117-15.862-16.21-32.584-33.311-50.227-51.282-17.613-17.961-34.867-35.41-51.784-52.326l-39.117-39.107c-4.239-4.239-8.806-8.468-13.742-12.687-4.936-4.239-10.404-7.404-16.404-9.513-5.99-2.13-12.329-2.468-19.026-1.065-6.676 1.403-13.558 5.99-20.613 13.742l-40.172 40.182c-14.1 14.090-20.265 26.952-18.504 38.584 1.751 11.633 9.687 24.484 23.767 38.584 6.369 6.349 16.927 17.101 31.724 32.236 14.797 15.155 30.659 31.181 47.585 48.108 16.906 16.906 33.3 33.475 49.152 49.695 15.862 16.2 28.375 28.539 37.53 36.997 12.687 12.687 20.623 23.081 23.788 31.181 3.185 8.1 0.184 16.742-8.991 25.897-6.339 6.339-13.906 14.1-22.723 23.255-8.817 9.175-16.753 17.275-23.788 24.32-11.981 11.981-16.394 22.548-13.22 31.724 3.174 9.165 13.568 14.797 31.191 16.916 17.633 2.109 37.898 4.577 60.785 7.404 22.907 2.816 46.356 5.468 70.308 7.926 23.972 2.468 47.391 5.11 70.318 7.926 22.886 2.826 43.848 5.294 62.884 7.414v0z" />
<glyph unicode="&#xe901;" glyph-name="xiala" d="M511.222 149.76l-503.245 503.245 81.838 81.715 421.407-421.407 421.407 421.407 81.828-81.715-503.235-503.245z" />
<glyph unicode="&#xe902;" glyph-name="shouji" d="M735.713 960h-446.71c-52.644 0-95.724-43.080-95.724-95.724v-829.604c0-52.644 43.080-95.724 95.724-95.724h446.71c52.654 0 95.734 43.080 95.734 95.724v829.604c-0.010 52.644-43.090 95.724-95.734 95.724v0zM512.358 2.775c-35.246 0-63.805 28.57-63.805 63.816s28.57 63.816 63.805 63.816c35.246 0 63.805-28.57 63.805-63.816s-28.549-63.816-63.805-63.816v0zM767.621 194.222h-510.525v638.147h510.525v-638.147z" />
<glyph unicode="&#xe903;" glyph-name="zaixianjiaoliu" d="M512.87 919.040c-281.702 0-510.085-181.268-510.085-412.918 0-152.177 98.57-293.11 246.088-371.896l57.6-151.316c15.647-26.747 44.861-22.282 71.977-6.82l154.839 78.971c10.936 6.072 20.644 11.366 29.215 16.005 258.406 22.395 460.452 217.221 460.452 435.067-0.010 231.639-228.393 412.908-510.085 412.908zM335.442 470.692c-8.827-8.827-21.228-13.957-33.71-13.957-12.493 0-24.883 5.13-33.71 13.957-8.817 8.827-13.957 21.228-13.957 33.71s5.13 24.883 13.957 33.71c8.827 8.827 21.228 13.967 33.71 13.967s24.883-5.13 33.71-13.967c8.827-8.827 13.957-21.228 13.957-33.71l-13.957-33.71zM539.761 470.692c-8.827-8.827-21.217-13.957-33.7-13.957s-24.883 5.13-33.71 13.957c-8.837 8.827-13.978 21.228-13.978 33.71s5.14 24.883 13.978 33.71c8.817 8.827 21.228 13.967 33.71 13.967s24.873-5.13 33.7-13.967c8.837-8.827 13.957-21.228 13.957-33.71s-5.12-24.873-13.957-33.71zM757.729 470.692c-8.817-8.827-21.217-13.957-33.71-13.957-12.483 0-24.893 5.13-33.69 13.957-8.837 8.827-13.978 21.228-13.978 33.71s5.14 24.883 13.978 33.71c8.796 8.827 21.207 13.967 33.69 13.967 12.493 0 24.893-5.13 33.71-13.967 8.827-8.827 13.947-21.228 13.947-33.71s-5.12-24.873-13.947-33.71z" />
<glyph unicode="&#xe904;" glyph-name="qq" d="M1001.677 300.268l-3.594 18.565-2.263 9.339-2.406 9.277-3.379 9.298-3.553 10.404-4.721 10.568-4.454 10.363-8.325 16.476-6.82 15.032-7.025 12.79-5.693 11.694-7.209 11.53-4.495 9.4-10.629 16.148-13.844 19.917-3.604 5.734-1.014 1.065v2.478l2.304 6.922 2.314 5.796 3.482 11.612 1.178 7.014v5.888l1.249 4.639v5.786l-1.249 5.796-1.178 5.765-1.29 9.37-2.191 9.339-3.604 9.247-3.43 8.192-3.43 7.004-3.492 6.984-3.379 5.765-7.137 10.414-1.188 3.604-1.116 2.335-2.335 18.545-2.294 11.684-1.116 15.084-3.564 15.104-4.721 17.521-2.304 10.445-2.324 8.069-3.42 9.37-3.43 10.465-3.717 10.435-3.318 10.435-9.4 19.845-4.608 9.288-7.045 10.547-5.683 9.349-6.021 10.435-8.038 10.465-6.973 9.288-8.11 9.318-9.185 9.257-8.264 8.11-10.455 8.161-5.704 4.721-4.844 3.441-11.52 8.212-25.723 16.251-14.92 7.004-14.131 5.796-13.834 5.847-15.186 5.704-14.971 3.604-15.186 3.43-16.323 3.441-15.155 3.574-15.073 2.314-16.425 1.096-14.991 2.386h-46.572l-15.155-1.157-15.124-2.335-15.084-1.157-15.135-2.417-14.008-2.304-13.896-3.441-13.988-4.608-13.957-4.7-12.8-4.669-12.749-5.827-11.735-4.588-23.163-14.008-10.609-6.984-10.383-8.12-9.339-7.035-12.8-12.8-11.581-10.435-10.527-11.602-9.257-11.612-9.349-11.622-8.1-10.435-7.035-11.684-4.618-5.765-3.512-5.97-6.922-10.404-5.878-10.435-4.649-10.496-4.577-10.455-4.649-9.339-3.512-9.196-3.492-10.547-3.574-8.161-3.461-16.261-4.669-16.323-1.178-12.759-2.284-11.643v-22.118l-2.304-3.523-3.523-3.42-2.365-4.7-1.126-4.649-3.502-9.339-2.253-9.257-1.27-6.984v-12.892l-7.004-8.079-3.41-9.37-4.669-8.079-2.345-8.161-1.157-6.953-2.355-7.004v-17.388l1.178-4.731 2.345-8.1 1.239-5.97-3.584-2.191-9.359-7.035-12.78-11.53-8.079-7.148-8.161-6.81-5.765-4.68-3.564-4.782-9.267-10.353-9.318-9.247-6.932-9.339-8.151-11.756-8.131-11.54-8.161-12.759-6.943-10.588-5.837-12.728-5.847-11.602-3.41-10.506-4.69-11.653-3.523-11.54-3.43-11.633-3.584-10.516-1.147-10.363-1.188-10.588-2.284-9.452-1.198-18.452v-25.661l1.208-8.090 1.157-12.851 1.126-6.912 2.335-5.796 1.188-5.908 1.147-3.482 4.669-6.922 1.126-2.355 2.386-2.191h2.253l2.447-1.26h2.284l3.461 1.26 9.349 2.191 6.943 2.355 7.035 4.659 5.796 4.608 6.922 4.741 5.847 5.673 4.649 5.908 5.796 6.031 4.669 5.56 3.512 5.96 2.273 4.454 5.765 10.588 1.26 3.42 1.188 2.314 1.065 2.427 1.249 2.294h1.126l1.147 1.188h1.157v-1.188h2.335l2.355-12.759 3.574-10.639 4.598-10.363 4.577-9.277 3.604-9.277 4.618-9.39 4.557-8.059 4.669-8.274 4.669-6.973 4.649-7.045 10.557-12.698 9.247-10.476 9.318-9.288 8.131-8.161 8.151-5.683 11.674-3.615 4.588-2.294 1.208-1.126v-1.362l-1.208-0.829-2.345-1.239-8.038-1.3h-8.131l-7.055-1.178-6.973-1.116-7.014-2.355-5.816-2.324-4.669-2.365-4.618-2.243-4.649-1.116-4.669-3.441-2.345-2.355-4.669-2.468-4.669-5.745-2.365-3.441-2.191-2.529-2.427-5.683-1.096-5.796-2.365-4.618-1.096-4.71v-8.161l-1.239-4.557v-17.562l1.239-2.304 3.461-6.922 1.096-3.543 1.219-4.618 3.41-3.369 2.365-2.355 3.604-3.666 2.222-2.253 8.161-4.669 8.161-5.786 8.131-4.608 10.527-3.43 10.435-3.615 10.527-3.441 11.551-3.615 11.715-2.345 12.749-1.014 11.622-2.314 13.957-2.417 25.62-2.191 25.58-1.239h47.698l10.486 1.239 9.288 1.065 10.516 1.116h8.11l13.978 3.441 10.476 2.304 10.404 2.345 17.439 7.045 8.274 3.615 8.049 3.43 12.708 7.025 11.756 5.683 8.11 5.919 6.973 4.731h9.339l6.994-1.29 15.012-1.065h12.769l4.864-1.065 4.649-1.3 8.059-2.314 6.932-3.615 16.425-4.649 15.073-5.755 16.21-3.656 15.258-3.379 16.138-3.42 16.261-3.553 16.323-1.137 15.145-1.239 15.227-2.345 14.909-1.014h44.349l13.957 2.243 13.885 1.116 12.841 1.239 12.759 2.365 11.756 3.441 11.54 2.304 4.731 1.311 5.734 2.068 10.476 3.656 8.090 4.721 9.277 3.379 8.172 4.669 7.096 4.854 2.253 3.43 3.543 3.369 4.444 4.618 3.615 5.96 2.406 4.495 1.178 2.304 1.188 3.604 1.065 3.553v3.369l1.178 3.502-1.178 4.731-1.065 4.485-1.188 4.864-2.468 4.649-2.314 5.755-3.441 3.42-3.42 4.741-4.669 3.543-9.277 8.038-10.486 8.1-10.619 5.857-11.53 5.796-25.661 12.769-4.946 3.205 8.55 8.376 5.745 5.96 4.669 5.847 8.161 11.602 8.212 12.718 6.81 11.704 5.97 10.537 9.288 20.859 6.912 17.377 3.615 11.54 3.492 4.731 1.116 3.666 2.314 0.942h2.355l5.734-12.698 5.908-11.551 4.731-7.035 4.506-6.984 4.659-7.045 4.741-6.912 4.547-4.721 2.365-2.191 2.294-3.615 3.502-1.249 2.243-2.191 4.731-2.314 3.43-1.178h3.604l3.389 1.178 3.604 2.314 3.482 1.065 3.604 2.365 2.089 3.615 3.604 3.41 2.324 3.502 2.345 4.557 3.379 4.721 2.406 4.669 1.065 5.796 3.615 11.581 3.492 12.78 1.249 14.008 0.952 8.151v23.204l-2.202 16.323-2.365 18.698zM829.563 97.812l-1.126 1.116 1.853 1.915-0.727-3.031z" />
<glyph unicode="&#xe905;" glyph-name="weixin" d="M365.814 859.863c-198.144 0-360.632-135.086-360.632-306.668 0-99.174 54.067-180.367 144.384-243.61l-36.106-108.411 126.106 63.232c45.087-8.847 81.203-18.094 126.239-18.094 11.397 0 22.651 0.543 33.7 1.352-7.014 24.115-11.162 49.459-11.162 75.694 0.123 157.481 135.311 285.43 306.596 285.43 11.674 0 23.255-0.942 34.775-2.15-31.15 145.357-186.532 253.225-363.899 253.225zM222.372 605.696c-29.891 0-54.077 24.177-54.077 54.067 0 29.942 24.187 54.159 54.077 54.159 29.85 0 54.159-24.218 54.159-54.159 0-29.88-24.31-54.067-54.159-54.067zM470.252 605.696c-29.891 0-54.077 24.177-54.077 54.067 0 29.942 24.177 54.159 54.077 54.159 29.85 0 54.159-24.218 54.159-54.159 0-29.88-24.31-54.067-54.159-54.067zM1024.082 327.649c0 144.21-144.21 261.652-306.289 261.652-171.663 0-306.708-117.453-306.708-261.652 0-144.425 135.188-261.56 306.708-261.56 35.84 0 72.151 8.847 108.227 17.971l98.888-54.303-27.116 90.184c72.387 54.426 126.29 126.382 126.29 207.708zM588.319 354.017c-25.651 0-46.51 20.869-46.51 46.561 0 25.743 20.859 46.52 46.51 46.52s46.602-20.777 46.602-46.52c0-25.692-20.951-46.561-46.602-46.561zM824.76 354.017c-25.641 0-46.51 20.869-46.51 46.561 0 25.743 20.869 46.52 46.51 46.52 25.651 0 46.623-20.777 46.623-46.52 0-25.692-20.972-46.561-46.623-46.561z" />
<glyph unicode="&#xe906;" glyph-name="search" d="M1001.708-13.691l-305.92 309.985c67.041 70.502 93.041 157.123 93.041 262.216 0 216.3-167.014 391.25-381.829 391.25-214.794 0-389.56-175.985-389.56-392.284s172.042-382.751 386.836-382.751c89.682 0 174.858 21.463 240.763 72.919l308.132-312.187c5.632-5.693 13.015-8.54 20.398-8.54 7.393 0 19.62 8.724 25.242 14.397 11.264 11.336 14.162 33.618 2.898 44.995v0zM79.002 562.33c0 179.487 144.988 325.448 323.185 325.448 178.217 0 323.205-145.951 323.205-325.448 0-179.436-144.988-325.458-323.205-325.458-178.196 0-323.185 146.022-323.185 325.458v0z" />
<glyph unicode="&#xe907;" glyph-name="daosanjiao" d="M1022.822 843.172l-507.914-808.018-507.884 808.018h1015.798z" />
<glyph unicode="&#xe908;" glyph-name="home" d="M513.024 900.424l-509.174-509.174 33.843-33.843 105.021 105.032v-475.331h740.618v475.382l105.062-105.083 33.802 33.792-509.174 509.225zM605.614 33.403h-185.16v324.004h185.16v-324.004zM837.038 33.403h-185.149v370.299h-277.729v-370.299h-185.149v475.331l324.014 324.014 324.014-324.024v-475.32z" />
<glyph unicode="&#xe909;" glyph-name="time" d="M516.854 951.47c-280.187 0-508.088-227.891-508.088-508.058s227.891-507.986 508.088-507.986c280.125 0 508.027 227.83 508.027 507.986s-227.901 508.058-508.027 508.058v0zM516.854-8.96c-249.498 0-452.465 203.039-452.465 452.444 0 249.426 202.936 452.424 452.465 452.424 249.426 0 452.434-202.895 452.434-452.424-0.010-249.477-203.008-452.444-452.434-452.444v0zM527.892 774.636h-55.613v-386.345h4.803l325.335-131.963 20.91 51.558-295.434 119.757v346.993z" />
<glyph unicode="&#xe90a;" glyph-name="yuedu" d="M513.372 111.913c-245.627 0-483.205 296.827-493.199 309.463l-14.664 18.104 14.725 18.412c10.056 12.554 249.068 307.548 494.868 307.548 56.248-0.123 116.695-15.831 179.63-46.684 50.821-24.904 103.434-59.72 156.355-103.465 93.215-77.036 156.201-156.221 158.843-159.549l14.141-18.319-15.268-18.371c-0.287-0.369-0.666-0.84-1.167-1.485-40.1-51.036-252.293-305.654-494.264-305.654v0zM515.338 706.447c-78.889 0-167.639-36.321-263.752-107.95-77.332-57.631-138.875-123.003-168.673-156.836l-2.079-2.355 2.068-2.365c29.891-34.202 91.412-100.168 167.731-157.768 95.57-72.131 183.89-108.8 262.502-108.995 199.25 0 374.692 199.342 432.333 264.847l2.068 2.355-2.058 2.355c-29.942 34.232-91.525 100.25-167.7 157.737-95.539 72.12-183.839 108.79-262.42 108.964h-0.020v0.010zM529.531 245.402c-46.531 0-91.75 20.347-127.314 57.303-33.792 35.052-53.125 84.101-53.012 134.564 0.215 103.854 81.828 188.344 181.914 188.344 99.891-0.256 180.992-85.279 180.777-189.532-0.113-48.824-20.49-97.72-55.941-134.164-34.939-35.912-81.019-56.515-126.423-56.515v0zM531.343 567.337c-68.854 0-124.989-57.764-125.133-128.758-0.082-34.417 12.841-66.836 36.372-91.29 23.747-24.627 53.75-37.755 86.753-37.939 67.963 0.246 125.43 59.187 125.553 128.707 0.143 71.137-55.276 129.137-123.546 129.28v0 0z" />
<glyph unicode="&#xe90b;" glyph-name="weibo" d="M754.504 454.84c-39.66 7.711-20.357 29.123-20.357 29.123s38.799 64.143-7.68 110.766c-57.641 57.754-197.663-7.342-197.663-7.342-53.484-16.64-39.281 7.588-31.724 48.824 0 48.589-16.609 130.816-159.068 82.248-142.305-48.835-264.52-219.914-264.52-219.914-84.982-113.684-73.697-201.554-73.697-201.554 21.207-193.976 226.785-247.224 386.683-259.83 168.202-13.22 395.264 58.153 464.087 204.749 68.854 146.862-56.259 204.974-96.061 212.931v0zM398.94 91.863c-167.035-7.823-302.019 76.124-302.019 187.853 0 111.852 134.984 201.554 302.019 209.275 167.076 7.711 302.336-61.307 302.336-172.943 0-111.708-135.26-216.576-302.336-224.184v0zM365.599 415.324c-167.936-19.712-148.552-177.449-148.552-177.449s-1.71-49.94 45.046-75.366c98.263-53.381 199.455-21.064 250.593 45.128 51.149 66.212 21.146 227.256-147.087 207.688v0zM323.226 193.935c-31.334-3.686-56.627 14.438-56.627 40.745 0 26.204 22.467 53.606 53.821 56.904 36.024 3.441 59.494-17.377 59.494-43.684 0-26.194-25.416-50.412-56.689-53.965v0zM422.246 278.497c-10.629-7.946-23.685-6.861-29.286 2.703-5.847 9.298-3.645 24.218 7.076 32.061 12.431 9.298 25.385 6.615 30.996-2.703 5.642-9.544 1.608-23.859-8.786-32.061v0zM836.301 523.131c13.537 0 25.047 10.035 26.972 23.132 0.246 0.983 0.369 1.833 0.369 2.939 20.511 184.924-151.142 153.088-151.142 153.088-15.237 0-27.443-12.37-27.443-27.781 0-15.165 12.196-27.525 27.443-27.525 123.31 27.29 96.102-96.317 96.102-96.317-0.010-15.288 12.411-27.535 27.699-27.535v0zM816.312 845.896c-59.372 13.937-120.392 1.925-137.492-1.362-1.321-0.123-2.56-1.372-3.779-1.618-0.584-0.123-0.952-0.727-0.952-0.727-16.876-4.782-29.204-20.429-29.204-38.912 0-22.026 17.807-40.151 40.049-40.151 0 0 21.576 2.898 36.25 8.643 14.531 5.878 137.421 4.372 198.502-98.417 33.28-75.018 14.633-125.225 12.319-133.294 0 0-7.926-19.497-7.926-38.687 0-22.159 17.787-36.076 39.864-36.076 18.483 0 33.956 2.529 38.502 33.812h0.236c65.567 219.034-80.189 321.946-186.368 346.788v0z" />
<glyph unicode="&#xe90c;" glyph-name="qqkongjian" d="M1019.955 570.552c0 11.305 0 8.161-11.305 8.161h-312.422l-156.948 309.606h-29.297l-156.549-309.606h-353.434v-5.12l230.605-212.972-28.682-352.143c0-20.357-2.355-20.357 28.682-20.357l291.144 189.921 298.639-189.921c31.048 0 31.048 0 31.048 31.037l-62.085 341.463 230.605 209.93zM261.642 205.425l340.337 285.573-324.813 55.869h481.137l-280.607-259.287 296.131-82.156h-512.184z" />
<glyph unicode="&#xe90d;" glyph-name="canyu" d="M1020.047 46.715v0.389c0 2.97-0.44 5.827-1.208 8.561-11.725 88.433-54.159 169.851-120.535 230.461-35.4 32.317-76.114 57.283-119.972 74.107 76.349 46.285 127.498 130.171 127.498 225.782 0 145.469-118.374 263.834-263.844 263.834-145.49 0-263.844-118.354-263.844-263.834 0-95.642 51.169-179.558 127.57-225.823-43.807-16.835-84.48-41.789-119.839-74.066-65.761-60.037-107.991-140.503-120.187-227.973-1.137-3.215-1.812-6.666-1.853-10.281l0.358-3.697v-0.389c0-17.377 13.926-31.56 31.201-31.99 6.021 186.317 158.935 335.524 346.726 335.524 187.802 0 340.716-149.207 346.726-335.544 17.285 0.051 31.365 14.019 31.56 31.283l-0.358 3.656zM411.976 588.667c0 127.099 103.035 230.144 230.144 230.144 127.099 0 230.144-103.045 230.144-230.144s-103.045-230.134-230.144-230.134c-127.109 0-230.144 103.035-230.144 230.134zM371.497 370.381v2.673c-118.405 13.66-210.35 114.237-210.35 236.298 0 131.389 106.506 237.896 237.896 237.896 18.299 0 36.106-2.068 53.217-5.98-0.614 16.722-14.356 30.085-31.232 30.085-0.891 0-1.782-0.051-2.652-0.123-8.294 0.788-16.701 1.229-25.201 1.229-145.48 0-263.834-118.354-263.834-263.834 0-95.642 51.169-179.558 127.56-225.833-43.807-16.824-84.47-41.779-119.839-74.056-65.761-60.027-107.991-140.493-120.187-227.953-1.147-3.226-1.802-6.676-1.853-10.281l0.358-3.697v-0.389c0-16.63 12.728-30.321 28.938-31.867-0.051 2.294-0.092 4.598-0.092 6.902 0.010 181.105 146.371 328.018 327.27 328.929z" />
<glyph unicode="&#xe90e;" glyph-name="biaoqian" d="M541.338 912.507c6.943 7.117 14.889 6.779 14.889 6.779s390.482 0 407.747 0c17.285 0 24.197-11.172 24.207-23.030 0.020-11.858 1.188-394.537 0.522-405.371-0.676-10.844-1.69-13.885-7.629-19.825-5.919-5.919-500.879-500.367-500.879-500.367s-15.452-19.517-35.052 0c-19.579 19.517-394.701 392.663-406.897 405.381-12.186 12.698-8.131 25.907 0 34.028 8.141 8.12 496.148 495.288 503.091 502.405v0zM563.005 949.76c-22.354 0-34.55-5.765-49.531-20.316-14.981-14.561-471.757-472.515-498.227-499.026-26.47-26.501-16.108-58.419 4.209-78.725 20.326-20.326 372.326-371.395 401.828-400.824 29.501-29.42 57.405-25.897 83.313 0 25.907 25.917 487.035 487.639 499.057 499.702 12.052 12.052 15.196 20.992 15.196 46.049v403.016c0 27.095-24.392 50.125-52.163 50.125s-381.327 0-403.681 0v0zM896.584 719.626c0-61.87-48.353-112.015-108.001-112.015-59.638 0-108.001 50.145-108.001 112.015 0 61.86 48.364 112.005 108.001 112.005 59.648 0 108.001-50.145 108.001-112.005v0zM788.582 798.822c-43.735 0-79.196-35.451-79.196-79.186 0-43.745 35.471-79.206 79.196-79.206 43.735 0 79.196 35.461 79.196 79.206 0 43.725-35.461 79.186-79.196 79.186v0z" />
<glyph unicode="&#xe90f;" glyph-name="xihuan" d="M513.085-9.605v0c-5.847 0-11.438 2.345-15.534 6.492l-362.383 367.821c-81.9 81.9-127.078 179.446-127.078 274.545 0 153.569 102.021 256.748 253.87 256.748 130.529 0 182.262-57.989 251.116-138.916 68.884 80.916 120.586 138.916 251.126 138.916 151.869 0 253.901-103.178 253.901-256.748 0-95.109-45.148-192.645-127.15-274.657l-362.332-367.708c-4.096-4.137-9.697-6.492-15.534-6.492v0zM261.97 852.398c-127.744 0-210.278-83.661-210.278-213.146 0-83.456 40.632-170.045 114.422-243.825l346.972-352.174 346.921 352.061c73.882 73.882 114.504 160.492 114.504 243.937 0 129.485-82.565 213.146-210.309 213.146-112.824 0-153.825-48.22-221.768-128.102l-12.78-15.002c-4.137-4.844-10.189-7.629-16.558-7.629v0c-6.369 0-12.431 2.775-16.558 7.629l-12.698 14.899c-67.983 79.954-109.015 128.205-221.87 128.205v0z" />
<glyph unicode="&#xe910;" glyph-name="zuo" d="M330.435 433.644l450.55-451.256-54.866-54.856-503.726 503.685 518.564 518.543 52.931-52.931-463.452-463.186z" />
<glyph unicode="&#xe911;" glyph-name="you" d="M216.668 907.11l52.879 52.89 518.113-518.093-503.286-503.245-54.825 54.815 450.161 450.857-463.043 462.776z" />
<glyph unicode="&#xe912;" glyph-name="buxihuan" d="M510.392-71.076c-281.446 0-510.433 228.977-510.433 510.433 0.010 281.436 228.987 510.403 510.433 510.403 281.436 0 510.392-228.966 510.392-510.413 0.010-281.446-228.966-510.423-510.392-510.423v0zM510.392 880.292c-243.139 0-440.965-197.806-440.965-440.945s197.816-440.965 440.965-440.965c243.128 0 440.924 197.816 440.924 440.965 0 243.139-197.796 440.945-440.924 440.945v0zM822.999 801.106l49.121-49.111-674.396-674.406-49.121 49.121 674.396 674.396z" />
<glyph unicode="&#xe913;" glyph-name="zuojiantou" d="M390.666 853.76l-355.502-355.492c-27.761-27.761-27.761-72.765 0-100.526l355.502-355.512c27.761-27.761 72.765-27.761 100.526 0 27.771 27.771 27.771 72.776 0 100.547l-234.127 234.117h681.554c39.291 0 71.096 31.816 71.096 71.096s-31.805 71.096-71.096 71.096h-681.554l234.127 234.138c13.865 13.896 20.838 32.061 20.838 50.258 0 18.207-6.932 36.413-20.838 50.268-27.761 27.781-72.765 27.781-100.526 0.010z" />
<glyph unicode="&#xe914;" glyph-name="bofang" d="M904.356 492.257c-55.091 33.731-698.163 429.466-730.767 448.584-40.468 24.73-80.947-6.748-80.947-48.343 0-32.604 0-852.183 0-899.41 0-46.090 44.974-68.577 78.705-48.343 47.217 28.109 692.541 424.97 733.010 449.7 35.983 22.497 35.983 76.452 0 97.812z" />
<glyph unicode="&#xe915;" glyph-name="zanting" d="M833.72 945.009c48.21 0 87.675-48.456 87.675-107.694v-778.639c0-59.228-39.465-107.684-87.675-107.684h-43.817c-48.21 0-87.665 48.445-87.665 107.684v778.639c0 59.238 39.455 107.694 87.665 107.694h43.817zM227.973 945.009c48.21 0 87.665-48.456 87.665-107.694v-778.639c0-59.228-39.455-107.684-87.665-107.684h-43.817c-48.21 0-87.665 48.445-87.665 107.684v778.639c0 59.238 39.455 107.694 87.665 107.694h43.817z" />
<glyph unicode="&#xe916;" glyph-name="youjiantou" d="M532.879 853.76c-13.896-13.865-20.838-32.061-20.838-50.268 0-18.196 6.963-36.362 20.838-50.258l234.117-234.138h-681.554c-39.291 0-71.096-31.816-71.096-71.096s31.805-71.096 71.096-71.096h681.554l-234.117-234.117c-27.771-27.771-27.771-72.776 0-100.547 27.761-27.761 72.765-27.761 100.526 0l355.502 355.512c27.771 27.761 27.771 72.765 0 100.526l-355.502 355.492c-27.75 27.761-72.765 27.761-100.526-0.010z" />
<glyph unicode="&#xe917;" glyph-name="tuodong" d="M978.79 410.726l-117.719-115.743c-14.848-14.592-38.922-14.623-53.77 0-14.848 14.612-14.848 38.277 0 52.869l61.010 59.996h-196.588c-22.036 0-39.926 17.859-39.926 39.926 0 22.047 17.889 39.936 39.926 39.936h196.669l-61.061 60.058c-14.858 14.582-14.858 38.277 0 52.869 14.848 14.592 38.922 14.561 53.77 0l117.77-115.825c14.93-5.755 25.61-20.070 25.61-37.028 0-17.039-10.701-31.304-25.692-37.059zM618.772 737.393l-66.836 66.847v-196.721c0-22.036-17.889-39.926-39.926-39.926s-39.926 17.889-39.926 39.926v196.721l-66.816-66.847c-15.596-15.596-40.888-15.575-56.484 0-15.596 15.626-15.596 40.888 0 56.463l134.994 135.014c15.596 15.596 40.868 15.596 56.463 0l134.994-134.994c15.596-15.596 15.596-40.888 0-56.494-15.596-15.565-40.888-15.565-56.463 0.010zM160.43 487.721h191.857c22.036 0 39.926-17.889 39.926-39.936 0-22.067-17.889-39.926-39.926-39.926h-191.775l65.167-63.334c15.524-15.104 15.524-39.557 0-54.682-15.544-15.104-40.704-15.073-56.218 0l-124.375 120.945c-14.909 5.755-25.559 20.009-25.559 36.997 0 16.906 10.588 31.201 25.446 37.007l124.477 120.965c15.524 15.063 40.673 15.063 56.218 0 15.524-15.073 15.524-39.537-0.020-54.651l-65.219-63.386zM408.709 153.385l63.365-62.638v197.325c0 22.036 17.889 39.926 39.926 39.926s39.926-17.889 39.926-39.926v-197.325l63.375 62.638c15.073 14.909 39.537 14.909 54.661 0 15.063-14.93 15.063-39.096-0.031-54.036l-121.283-119.89c-6.134-14.193-20.214-24.146-36.659-24.146-16.425 0-30.505 9.964-36.659 24.146l-121.283 119.921c-15.094 14.909-15.094 39.076 0 53.985 15.104 14.909 39.567 14.94 54.661 0.020z" />
<glyph unicode="&#xe918;" glyph-name="guanbi" d="M608.788 448.031l387.072 387.062c26.726 26.726 26.726 70.164 0 96.768-26.716 26.726-70.031 26.726-96.758 0l-387.103-387.062-387.123 387.062c-26.726 26.726-70.031 26.726-96.768 0s-26.737-70.031 0-96.768l387.072-387.103-387.072-387.052c-26.737-26.726-26.737-70.031 0-96.758 26.665-26.726 70.031-26.726 96.768 0l387.072 387.031 387.144-387.174c26.726-26.593 70.103-26.593 96.829 0 26.665 26.737 26.665 70.175 0 96.901l-387.133 387.092z" />
</font>
</defs>
</svg>
